<svg width="16" height="13" viewBox="0 0 16 13" xmlns="http://www.w3.org/2000/svg">
  <path d="M16 4.054v7.09c0 .392-.14.728-.42 1.008-.28.28-.616.42-1.01.42H1.43c-.394 0-.73-.14-1.01-.42-.28-.28-.42-.616-.42-1.01V4.055c.262.29.562.55.902.776C3.057 6.295 4.536 7.32 5.34 7.91c.34.25.614.446.825.586.21.14.493.282.844.428.35.146.677.22.98.22h.02c.303 0 .63-.074.98-.22.352-.146.634-.29.845-.428.21-.14.486-.335.826-.585 1.013-.73 2.495-1.758 4.447-3.08.34-.232.637-.49.893-.776zm0-2.625c0 .47-.146.918-.438 1.347-.29.428-.654.794-1.09 1.098-2.237 1.554-3.63 2.52-4.177 2.902-.06.04-.186.132-.38.272-.193.14-.354.252-.482.338-.128.087-.283.183-.464.29-.183.108-.354.188-.515.242-.16.053-.31.08-.446.08h-.02c-.136 0-.285-.027-.445-.08-.16-.054-.332-.134-.514-.24-.18-.11-.335-.205-.463-.292-.128-.086-.29-.2-.482-.34-.194-.14-.32-.23-.38-.27-.54-.382-1.32-.925-2.34-1.63-1.017-.706-1.627-1.13-1.83-1.273-.368-.25-.717-.594-1.044-1.03C.165 2.404 0 2 0 1.624 0 1.16.124.775.37.465.62.154.97 0 1.43 0h13.14c.388 0 .723.14 1.006.42.283.28.424.616.424 1.01z" fill="#01ceff" fill-rule="evenodd"/>
</svg>
