<svg xmlns="http://www.w3.org/2000/svg" width="16" height="14" viewBox="0 0 16 14">
  <path fill="#01CFFF" fill-rule="evenodd" d="M145.000019,7.62499121 L145.000019,14.7142854 C145.000019,15.5000006 144.357161,16.1428585 143.571446,16.1428585 L130.428573,16.1428585 C129.642858,16.1428585 129,15.5000006 129,14.7142854 L129,7.62499121 C129.267857,7.91963442 129.571429,8.1785633 129.901787,8.40177785 C131.383931,9.41070762 132.883933,10.4196374 134.339292,11.4821387 C135.089293,12.0357108 136.017866,12.714283 136.991081,12.714283 L137.008938,12.714283 C137.982154,12.714283 138.910726,12.0357108 139.660727,11.4821387 C141.116086,10.428566 142.616088,9.41070762 144.107161,8.40177785 C144.42859,8.1785633 144.732162,7.91963442 145.000019,7.62499121 Z M145.000019,4.99998808 C145.000019,5.99998927 144.258947,6.90177606 143.473232,7.44641957 C142.080373,8.41070643 140.678585,9.37499329 139.294655,10.3482087 C138.714297,10.7499949 137.732153,11.5714245 137.008938,11.5714245 L136.991081,11.5714245 C136.267866,11.5714245 135.285722,10.7499949 134.705364,10.3482087 C133.321434,9.37499329 131.919646,8.41070643 130.535716,7.44641957 C129.901787,7.01784763 129,6.00891785 129,5.19641688 C129,4.32141584 129.473215,3.57141495 130.428573,3.57141495 L143.571446,3.57141495 C144.348233,3.57141495 145.000019,4.21427286 145.000019,4.99998808 Z" transform="translate(-129 -3)"/>
</svg>
