<svg xmlns="http://www.w3.org/2000/svg" width="20" height="16" viewBox="0 0 20 16">
  <path fill="#666666" fill-rule="evenodd" d="M84.9667961,21.1499894 L84.9667961,29.6571424 C84.9667961,30.6000007 84.1953666,31.3714302 83.2525083,31.3714302 L67.4810609,31.3714302 C66.5382027,31.3714302 65.7667732,30.6000007 65.7667732,29.6571424 L65.7667732,21.1499894 C66.0882021,21.5035613 66.4524883,21.814276 66.8489173,22.0821334 C68.6274909,23.2928491 70.427493,24.5035649 72.1739237,25.7785664 C73.0739247,26.4428529 74.1882118,27.2571396 75.3560703,27.2571396 L75.3774989,27.2571396 C76.5453574,27.2571396 77.6596445,26.4428529 78.5596456,25.7785664 C80.3060762,24.5142792 82.1060784,23.2928491 83.8953662,22.0821334 C84.2810809,21.814276 84.6453671,21.5035613 84.9667961,21.1499894 Z M84.9667961,17.9999857 C84.9667961,19.1999871 84.0775093,20.2821313 83.134651,20.9357035 C81.4632204,22.0928477 79.7810756,23.249992 78.1203593,24.4178505 C77.4239299,24.8999939 76.2453571,25.8857094 75.3774989,25.8857094 L75.3560703,25.8857094 C74.4882121,25.8857094 73.3096393,24.8999939 72.6132099,24.4178505 C70.9524936,23.249992 69.2703488,22.0928477 67.6096325,20.9357035 C66.8489173,20.4214172 65.7667732,19.2107014 65.7667732,18.2357003 C65.7667732,17.185699 66.334631,16.2856979 67.4810609,16.2856979 L83.2525083,16.2856979 C84.1846523,16.2856979 84.9667961,17.0571274 84.9667961,17.9999857 Z" transform="translate(-65.534 -16)"/>
</svg>
