<svg xmlns="http://www.w3.org/2000/svg" width="22" height="18" viewBox="0 0 22 18">
  <path fill="#01ceff" fill-rule="evenodd" d="M10.737,15.713 C9.129,15.713 7.997,15.363 7.274,14.639 C7.118,14.483 7.118,14.229 7.274,14.072 C7.431,13.916 7.686,13.916 7.844,14.072 C8.407,14.636 9.354,14.912 10.734,14.912 C12.118,14.912 13.064,14.637 13.629,14.072 C13.784,13.918 14.039,13.918 14.194,14.072 C14.351,14.232 14.351,14.485 14.194,14.642 C13.472,15.364 12.339,15.716 10.732,15.716 L10.736,15.712 L10.737,15.713 Z M7.505,8.925 C6.685,8.925 6.002,9.609 6.002,10.428 C6.002,11.244 6.686,11.908 7.505,11.908 C8.325,11.908 8.985,11.244 8.985,10.428 C8.985,9.608 8.322,8.925 7.505,8.925 L7.505,8.925 Z M13.987,8.925 C13.169,8.925 12.484,9.609 12.484,10.428 C12.484,11.244 13.169,11.908 13.987,11.908 C14.807,11.908 15.467,11.244 15.467,10.428 C15.467,9.608 14.805,8.925 13.987,8.925 Z M18.064,7.495 C18.994,8.242 19.678,9.127 20.027,10.099 C20.429,9.796 20.671,9.322 20.671,8.799 C20.671,7.899 19.941,7.169 19.041,7.169 C18.684,7.169 18.345,7.287 18.065,7.496 L18.064,7.495 Z M2.432,7.174 C1.532,7.174 0.802,7.906 0.802,8.804 C0.802,9.291 1.017,9.744 1.38,10.048 C1.74,9.082 2.43,8.202 3.363,7.466 C3.093,7.278 2.769,7.173 2.433,7.173 L2.432,7.174 Z M10.692,18 C5.399,18 1.094,15.128 1.094,11.598 C1.094,11.353 1.114,11.111 1.156,10.874 C0.443,10.432 0,9.652 0,8.8 C0,7.458 1.09,6.368 2.432,6.368 C3.03,6.368 3.599,6.588 4.042,6.978 C5.707,5.911 7.948,5.238 10.417,5.194 L12.037,0.242 L12.393,0.326 C12.395,0.326 12.398,0.326 12.401,0.329 L16.181,1.219 C16.486,0.502 17.196,0 18.023,0 C19.126,0 20.023,0.9 20.023,2.002 C20.023,3.107 19.126,4.005 18.023,4.005 C16.918,4.005 16.02,3.105 16.019,2.005 L12.569,1.192 L11.259,5.202 C13.639,5.295 15.787,5.968 17.392,7.012 C17.839,6.6 18.422,6.368 19.04,6.368 C20.384,6.368 21.473,7.461 21.473,8.801 C21.473,9.695 20.998,10.493 20.239,10.921 C20.271,11.143 20.291,11.368 20.291,11.597 C20.289,15.127 15.983,17.997 10.691,17.997 L10.691,18 L10.692,18 Z M18.024,0.803 C17.361,0.803 16.824,1.339 16.824,2.003 C16.824,2.663 17.36,3.203 18.024,3.203 C18.68,3.203 19.22,2.665 19.22,2.003 C19.22,1.343 18.683,0.803 18.02,0.803 L18.024,0.803 L18.024,0.803 Z"/>
</svg>
