<svg xmlns="http://www.w3.org/2000/svg" width="27" height="22" viewBox="0 0 27 22">
  <path fill="#666666" fill-rule="evenodd" d="M64.9127943,25.2423203 C64.8477943,25.5457799 64.8152943,25.8558008 64.8152943,26.1707426 C64.8152943,29.9434834 69.5927943,33.0158067 75.4655443,33.0158067 C81.3366693,33.0158067 86.1141693,29.9451238 86.1141693,26.1707426 C86.1141693,25.8705637 86.0816693,25.5736654 86.0247943,25.2849687 L86.0085443,25.2488816 C85.9874193,25.18983 85.9760443,25.1291381 85.9760443,25.0684462 C85.6510443,23.7824336 84.7654193,22.612884 83.4849193,21.6696988 C83.4361693,21.6532956 83.3906693,21.6270504 83.3484193,21.5926036 C83.3207943,21.5712795 83.2996693,21.5466746 83.2769193,21.5220698 C81.3301693,20.1704444 78.5481693,19.3240382 75.4655443,19.3240382 C72.4105443,19.3240382 69.6545443,20.1540412 67.7110443,21.4810617 C67.6947943,21.5007456 67.6785443,21.5187891 67.6574193,21.5351924 C67.6151693,21.5712795 67.5664193,21.6008052 67.5160443,21.6172085 C66.2079193,22.562034 65.2995443,23.7381449 64.9615443,25.0389204 C64.9615443,25.1012526 64.9452943,25.1652252 64.9209193,25.2259171 L64.9127943,25.2423203 L64.9127943,25.2423203 Z M75.5191693,31.2048911 C73.5724193,31.2048911 72.2009193,30.7784074 71.3266693,29.8926335 C71.1381693,29.7023561 71.1381693,29.3923352 71.3266693,29.2004175 C71.5167943,29.0101402 71.8255443,29.0101402 72.0156693,29.2004175 C72.6981693,29.8893528 73.8437943,30.2256188 75.5175443,30.2256188 C77.1912943,30.2256188 78.3369193,29.8909931 79.0210443,29.2020579 C79.2095443,29.0117805 79.5182943,29.0117805 79.7067943,29.2020579 C79.8969193,29.3956159 79.8969193,29.7056367 79.7067943,29.8975544 C78.8325443,30.7800477 77.4610443,31.2098121 75.5142943,31.2098121 L75.5191693,31.2048911 Z M71.6061693,22.908142 C70.6149193,22.908142 69.7861693,23.7447062 69.7861693,24.7453027 C69.7861693,25.7426186 70.6149193,26.5529377 71.6061693,26.5529377 C72.5974193,26.5529377 73.3985443,25.7426186 73.3985443,24.7453027 C73.3985443,23.7447062 72.5957943,22.908142 71.6061693,22.908142 L71.6061693,22.908142 Z M79.4549193,22.908142 C78.4636693,22.908142 77.6349193,23.7447062 77.6349193,24.7453027 C77.6349193,25.7426186 78.4636693,26.5529377 79.4549193,26.5529377 C80.4461693,26.5529377 81.2472943,25.7426186 81.2472943,24.7453027 C81.2472943,23.7447062 80.4445443,22.908142 79.4549193,22.908142 L79.4549193,22.908142 Z M84.3916693,21.1611989 C85.5177943,22.073218 86.3449193,23.1558306 86.7674193,24.3434238 C87.2549193,23.9743513 87.5474193,23.3953176 87.5474193,22.755592 C87.5474193,21.6565762 86.6617943,20.764241 85.5746693,20.764241 C85.1407943,20.764241 84.7296693,20.906949 84.3916693,21.1628392 L84.3916693,21.1611989 Z M65.4636693,20.7675216 C64.3749193,20.7675216 63.4909193,21.6614972 63.4909193,22.7588727 C63.4909193,23.3543096 63.7509193,23.9070981 64.1896693,24.2794512 C64.6251693,23.0984193 65.4604193,22.0240084 66.5914193,21.1234715 C66.2631693,20.8938264 65.8715443,20.7658813 65.4636693,20.7658813 L65.4636693,20.7675216 Z M75.4655443,34 C69.0565443,34 63.8435443,30.4897107 63.8435443,26.1756636 C63.8435443,25.8754846 63.8695443,25.5802267 63.9182943,25.2898897 C63.0554193,24.7502237 62.5191693,23.7971965 62.5191693,22.755592 C62.5191693,21.1152699 63.8402943,19.7833284 65.4636693,19.7833284 C66.1884193,19.7833284 66.8774193,20.0523412 67.4136693,20.5296749 C69.4286693,19.2239785 72.1424193,18.4021772 75.1324193,18.3480465 L77.0954193,12.295258 L77.5244193,12.3985983 C77.5276693,12.3985983 77.5309193,12.3985983 77.5341693,12.4018789 L82.1101693,13.4894125 C82.4806693,12.6151208 83.3402943,12 84.3412943,12 C85.6770443,12 86.7625443,13.0990158 86.7625443,14.4473606 C86.7625443,15.7973457 85.6770443,16.8947211 84.3412943,16.8947211 C83.0039193,16.8947211 81.9167943,15.7957053 81.9151693,14.4506412 L77.7389193,13.456606 L76.1529193,18.3562481 C79.0340443,18.4710707 81.6356693,19.2945124 83.5791693,20.570683 C84.1202943,20.0671041 84.8255443,19.7833284 85.5746693,19.7833284 C87.1996693,19.7833284 88.5191693,21.1185506 88.5191693,22.7572323 C88.5191693,23.8480465 87.9439193,24.8240382 87.0241693,25.3456606 C87.0647943,25.6179541 87.0891693,25.8935282 87.0891693,26.1723829 C87.0859193,30.4864301 81.8729193,33.9967194 75.4655443,33.9967194 L75.4655443,34 Z M84.3429193,12.9809126 C83.5401693,12.9809126 82.8885443,13.6370415 82.8885443,14.4473606 C82.8885443,15.2560394 83.5385443,15.9138085 84.3412943,15.9138085 C85.1375443,15.9138085 85.7907943,15.2576797 85.7907943,14.4490009 C85.7907943,13.6403221 85.1407943,12.9825529 84.3396693,12.9825529 L84.3429193,12.9809126 Z" transform="translate(-62.026 -12)"/>
</svg>
