<svg xmlns="http://www.w3.org/2000/svg" width="44" height="44" viewBox="0 0 44 44">
  <path fill="#01CEFF" d="M21.692 31c-5.293 0-9.598-2.872-9.598-6.402 0-.245.02-.487.062-.724C11.443 23.432 11 22.652 11 21.8c0-1.342 1.09-2.432 2.432-2.432.598 0 1.167.22 1.61.61 1.665-1.067 3.906-1.74 6.375-1.784l1.62-4.952.356.084c.002 0 .005 0 .008.003l3.78.89c.306-.717 1.016-1.22 1.843-1.22 1.103 0 2 .9 2 2.002 0 1.105-.897 2.003-2 2.003-1.105 0-2.003-.9-2.004-2l-3.45-.813-1.31 4.01c2.38.093 4.528.766 6.133 1.81.447-.412 1.03-.644 1.648-.644 1.344 0 2.433 1.093 2.433 2.433 0 .894-.475 1.692-1.234 2.12.032.222.052.447.052.676-.002 3.53-4.308 6.4-9.6 6.4V31zm.045-2.287l-.004.004c1.607 0 2.74-.352 3.462-1.074.157-.157.157-.41 0-.57-.155-.154-.41-.154-.566 0-.566.565-1.512.84-2.895.84-1.382 0-2.328-.276-2.892-.84-.157-.156-.412-.156-.57 0-.155.157-.155.41 0 .566.723.724 1.856 1.073 3.464 1.073zm-3.232-6.788c-.82 0-1.503.684-1.503 1.503 0 .816.684 1.48 1.503 1.48.82 0 1.48-.664 1.48-1.48 0-.82-.663-1.503-1.48-1.503zm6.482 0c-.818 0-1.503.684-1.503 1.503 0 .816.685 1.48 1.503 1.48.82 0 1.48-.664 1.48-1.48 0-.82-.662-1.503-1.48-1.503z" fill-rule="evenodd"/>
</svg>
