<svg xmlns="http://www.w3.org/2000/svg" width="24" height="20" viewBox="0 0 24 20">
  <path fill="#666666" fill-rule="evenodd" d="M76.1386713,32 C70.3889016,32 65.7121113,28.8088279 65.7121113,24.8869669 C65.7121113,24.6140769 65.735437,24.3456606 65.7791725,24.0817179 C65.0050529,23.5911124 64.5239617,22.7247241 64.5239617,21.7778109 C64.5239617,20.286609 65.7091956,19.0757531 67.1655901,19.0757531 C67.8157923,19.0757531 68.4339217,19.3203102 68.9150129,19.7542499 C70.7227498,18.5672532 73.1573633,17.820161 75.8398116,17.7709514 L77.6008972,12.2684163 L77.9857702,12.3623621 C77.9886859,12.3623621 77.9916016,12.3623621 77.9945173,12.3653445 L82.0998295,13.3540113 C82.4322199,12.5592007 83.2034238,12 84.1014608,12 C85.2998154,12 86.2736608,12.9991053 86.2736608,14.2248732 C86.2736608,15.4521324 85.2998154,16.4497465 84.1014608,16.4497465 C82.9016483,16.4497465 81.9263451,15.4506412 81.9248873,14.2278557 L78.1782067,13.3241873 L76.7553428,17.7784074 C79.340115,17.8827915 81.6741367,18.6313749 83.4177281,19.79153 C83.9031929,19.333731 84.5359008,19.0757531 85.2079707,19.0757531 C86.6658231,19.0757531 87.8495992,20.2895914 87.8495992,21.7793021 C87.8495992,22.7709514 87.3335195,23.6582165 86.508375,24.1324187 C86.5448213,24.3799582 86.5666891,24.6304802 86.5666891,24.8839845 C86.5637734,28.8058455 81.8869831,31.9970176 76.1386713,31.9970176 L76.1386713,32 Z M76.1867804,29.4589919 L76.1824069,29.4634656 C77.928914,29.4634656 79.1593414,29.0727707 79.9436659,28.270504 C80.1142346,28.0960334 80.1142346,27.8141962 79.9436659,27.6382344 C79.774555,27.465255 79.4975631,27.465255 79.3284522,27.6382344 C78.7146964,28.2645392 77.6869105,28.5687444 76.1853226,28.5687444 C74.6837347,28.5687444 73.6559488,28.263048 73.0436508,27.6367432 C72.873082,27.4637638 72.5960901,27.4637638 72.4255214,27.6367432 C72.2564105,27.8112138 72.2564105,28.093051 72.4255214,28.2660304 C73.2098459,29.0712795 74.4402733,29.4589919 76.1867804,29.4589919 Z M72.676272,21.9164927 C71.786982,21.9164927 71.0434773,22.6770057 71.0434773,23.5866388 C71.0434773,24.4932896 71.786982,25.2299433 72.676272,25.2299433 C73.5655619,25.2299433 74.2842831,24.4932896 74.2842831,23.5866388 C74.2842831,22.6770057 73.5641041,21.9164927 72.676272,21.9164927 Z M79.7176988,21.9164927 C78.8284089,21.9164927 78.0849042,22.6770057 78.0849042,23.5866388 C78.0849042,24.4932896 78.8284089,25.2299433 79.7176988,25.2299433 C80.6069887,25.2299433 81.3257099,24.4932896 81.3257099,23.5866388 C81.3257099,22.6770057 80.6055309,21.9164927 79.7176988,21.9164927 Z" transform="translate(-64.022 -12)"/>
</svg>
