<svg xmlns="http://www.w3.org/2000/svg" width="22" height="18" viewBox="0 0 22 18">
  <path fill="#01CEFF" fill-rule="evenodd" d="M93.692365,18 C88.3991948,18 84.0937966,15.1279451 84.0937966,11.5982702 C84.0937966,11.3526693 84.1152699,11.1110945 84.1555324,10.8735461 C83.442887,10.4320012 83,9.65225171 83,8.80002982 C83,7.45794811 84.0911124,6.36817775 85.4318521,6.36817775 C86.0304205,6.36817775 86.5994632,6.58827915 87.0423501,6.97882493 C88.7065315,5.91052789 90.9478079,5.23814494 93.4172383,5.19385625 L95.038473,0.241574709 L95.3927826,0.326125857 C95.3954667,0.326125857 95.3981509,0.326125857 95.4008351,0.328810021 L99.1801372,1.2186102 C99.4861318,0.503280644 100.196093,0 101.022815,0 C102.126007,0 103.022517,0.899194751 103.022517,2.00238592 C103.022517,3.10691918 102.126007,4.00477185 101.022815,4.00477185 C99.9182821,4.00477185 99.0204295,3.1055771 99.0190874,2.00507009 L95.5699374,1.19176857 L94.2600656,5.20056666 C96.6395765,5.29451238 98.7882493,5.9682374 100.393379,7.01237698 C100.840292,6.60035789 101.422756,6.36817775 102.041455,6.36817775 C103.383537,6.36817775 104.473307,7.46063227 104.473307,8.80137191 C104.473307,9.69385625 103.998211,10.4923949 103.238592,10.9191769 C103.272144,11.1419624 103.292276,11.3674322 103.292276,11.595586 C103.289591,15.125261 98.9841933,17.9973158 93.692365,17.9973158 L93.692365,18 Z M93.7366537,15.7130928 L93.7326275,15.717119 C95.3404414,15.717119 96.4731584,15.3654936 97.1951983,14.6434536 C97.3522219,14.4864301 97.3522219,14.2327766 97.1951983,14.074411 C97.0395169,13.9187295 96.7845213,13.9187295 96.6288398,14.074411 C96.0638234,14.6380853 95.1176558,14.91187 93.7353117,14.91187 C92.3529675,14.91187 91.4067999,14.6367432 90.8431256,14.0730689 C90.686102,13.9173874 90.4311065,13.9173874 90.2740829,14.0730689 C90.1184014,14.2300925 90.1184014,14.4837459 90.2740829,14.6394274 C90.9961229,15.3641515 92.1288398,15.7130928 93.7366537,15.7130928 Z M90.504921,8.92484342 C89.6862511,8.92484342 89.0017894,9.6093051 89.0017894,10.4279749 C89.0017894,11.2439606 89.6862511,11.906949 90.504921,11.906949 C91.3235908,11.906949 91.9852371,11.2439606 91.9852371,10.4279749 C91.9852371,9.6093051 91.3222487,8.92484342 90.504921,8.92484342 Z M96.9871757,8.92484342 C96.1685058,8.92484342 95.4840441,9.6093051 95.4840441,10.4279749 C95.4840441,11.2439606 96.1685058,11.906949 96.9871757,11.906949 C97.8058455,11.906949 98.4674918,11.2439606 98.4674918,10.4279749 C98.4674918,9.6093051 97.8045034,8.92484342 96.9871757,8.92484342 Z" transform="translate(-83)"/>
</svg>
