<svg width="17" height="14" viewBox="0 0 17 14" xmlns="http://www.w3.org/2000/svg">
  <path d="M17 1.65c-.48.704-1.07 1.34-1.74 1.832v.452C15.26 8.614 11.762 14 5.346 14 3.387 14 1.55 13.408 0 12.407c.274.042.562.056.836.056 1.632 0 3.14-.564 4.333-1.522-1.523-.028-2.812-1.043-3.264-2.453.22.043.438.07.658.07.315 0 .63-.04.918-.126C1.892 8.108.685 6.684.685 4.964V4.92c.48.268 1.015.423 1.577.438C1.33 4.723.712 3.652.712 2.425c0-.65.18-1.27.48-1.79C2.907 2.776 5.47 4.186 8.378 4.327c-.07-.253-.096-.52-.096-.803C8.28 1.58 9.845 0 11.764 0c1 0 1.92.423 2.55 1.114.795-.17 1.535-.45 2.207-.86-.26.818-.81 1.522-1.522 1.96.7-.085 1.37-.282 2.002-.564" fill="#01ceff" fill-rule="evenodd"/>
</svg>
