<svg xmlns="http://www.w3.org/2000/svg" width="21" height="17" viewBox="0 0 21 17">
  <path fill="#666666" fill-rule="evenodd" d="M86.4687225,18.0030211 C85.9042064,18.8590131 85.210658,19.6294058 84.4203354,20.2286002 L84.4203354,20.776435 C84.4203354,26.4602216 80.3074322,33 72.7590451,33 C70.4525935,33 68.2913032,32.2809668 66.4687225,31.0654582 C66.7913032,31.1168177 67.1300128,31.1339376 67.4525935,31.1339376 C69.3719483,31.1339376 71.1461419,30.449144 72.5493677,29.284995 C70.7590451,29.2507553 69.2429161,28.0181269 68.710658,26.306143 C68.9687225,26.3575025 69.226787,26.3917422 69.4848515,26.3917422 C69.8558193,26.3917422 70.226787,26.3403827 70.5654967,26.2376636 C68.694529,25.8439074 67.2751741,24.1148036 67.2751741,22.0261833 L67.2751741,21.9748238 C67.8396902,22.3001007 68.4687225,22.4884189 69.1300128,22.5055388 C68.0332386,21.735146 67.3074322,20.4340383 67.3074322,18.9446123 C67.3074322,18.1570997 67.5171096,17.4038268 67.8719483,16.7703927 C69.8880773,19.3726083 72.9042064,21.0845921 76.3235612,21.2557905 C76.2429161,20.9476334 76.210658,20.6223565 76.210658,20.2799597 C76.210658,17.917422 78.0493677,16 80.3074322,16 C81.4848515,16 82.5654967,16.5135952 83.3074322,17.3524673 C84.2429161,17.1470292 85.1138838,16.8046324 85.9042064,16.3081571 C85.5977548,17.3011078 84.9525935,18.1570997 84.1138838,18.6878147 C84.9364644,18.5850957 85.726787,18.3454179 86.4687225,18.0030211" transform="translate(-66.013 -16)"/>
</svg>
