<svg xmlns="http://www.w3.org/2000/svg" width="17" height="14" viewBox="0 0 17 14">
  <path fill="#01CEFF" fill-rule="evenodd" d="M58,3.64954683 C57.5201613,4.35448137 56.9306452,4.98892246 56.258871,5.48237664 L56.258871,5.93353474 C56.258871,10.6143001 52.7629032,16 46.3467742,16 C44.3862903,16 42.5491935,15.407855 41,14.4068479 C41.2741935,14.449144 41.5620968,14.4632427 41.8362903,14.4632427 C43.4677419,14.4632427 44.9758065,13.8992951 46.1685484,12.9405841 C44.6467742,12.9123867 43.3580645,11.897281 42.9056452,10.4874119 C43.125,10.529708 43.3443548,10.5579053 43.5637097,10.5579053 C43.8790323,10.5579053 44.1943548,10.5156093 44.4822581,10.4310171 C42.8919355,10.1067472 41.6854839,8.68277946 41.6854839,6.96273917 L41.6854839,6.9204431 C42.1653226,7.18831823 42.7,7.34340383 43.2620968,7.35750252 C42.3298387,6.72306143 41.7129032,5.65156093 41.7129032,4.42497482 C41.7129032,3.77643505 41.891129,3.15609265 42.1927419,2.63444109 C43.9064516,4.77744209 46.4701613,6.18731118 49.3766129,6.32829809 C49.3080645,6.07452165 49.2806452,5.80664653 49.2806452,5.52467271 C49.2806452,3.57905337 50.8435484,2 52.7629032,2 C53.7637097,2 54.6822581,2.42296073 55.3129032,3.11379658 C56.1080645,2.94461229 56.8483871,2.66263847 57.5201613,2.25377644 C57.2596774,3.0715005 56.7112903,3.77643505 55.9983871,4.21349446 C56.6975806,4.12890232 57.3693548,3.93152064 58,3.64954683" transform="translate(-41 -2)"/>
</svg>
