<svg xmlns="http://www.w3.org/2000/svg" width="21" height="17" viewBox="0 0 21 17">
  <path fill="#666666" fill-rule="evenodd" d="M86.7199148,18.0030211 C86.1553987,18.8590131 85.4618503,19.6294058 84.6715277,20.2286002 L84.6715277,20.776435 C84.6715277,26.4602216 80.5586245,33 73.0102374,33 C70.7037858,33 68.5424954,32.2809668 66.7199148,31.0654582 C67.0424954,31.1168177 67.3812051,31.1339376 67.7037858,31.1339376 C69.6231406,31.1339376 71.3973342,30.449144 72.80056,29.284995 C71.0102374,29.2507553 69.4941084,28.0181269 68.9618503,26.306143 C69.2199148,26.3575025 69.4779793,26.3917422 69.7360438,26.3917422 C70.1070116,26.3917422 70.4779793,26.3403827 70.816689,26.2376636 C68.9457213,25.8439074 67.5263664,24.1148036 67.5263664,22.0261833 L67.5263664,21.9748238 C68.0908825,22.3001007 68.7199148,22.4884189 69.3812051,22.5055388 C68.2844309,21.735146 67.5586245,20.4340383 67.5586245,18.9446123 C67.5586245,18.1570997 67.7683019,17.4038268 68.1231406,16.7703927 C70.1392696,19.3726083 73.1553987,21.0845921 76.5747535,21.2557905 C76.4941084,20.9476334 76.4618503,20.6223565 76.4618503,20.2799597 C76.4618503,17.917422 78.30056,16 80.5586245,16 C81.7360438,16 82.816689,16.5135952 83.5586245,17.3524673 C84.4941084,17.1470292 85.3650761,16.8046324 86.1553987,16.3081571 C85.8489471,17.3011078 85.2037858,18.1570997 84.3650761,18.6878147 C85.1876567,18.5850957 85.9779793,18.3454179 86.7199148,18.0030211" transform="translate(-66.511 -16)"/>
</svg>
