<svg xmlns="http://www.w3.org/2000/svg" width="16" height="16" viewBox="0 0 16 16">
  <path fill="#01CEFF" fill-rule="evenodd" d="M95.665,9.588 C95.465,9.488 94.488,9.01 94.305,8.944 C94.123,8.877 93.99,8.844 93.857,9.044 C93.725,9.241 93.343,9.687 93.227,9.819 C93.111,9.951 92.995,9.967 92.797,9.869 C92.597,9.769 91.955,9.559 91.195,8.885 C90.603,8.36 90.205,7.711 90.088,7.512 C89.972,7.314 90.075,7.207 90.175,7.108 C90.265,7.018 90.375,6.876 90.475,6.76 C90.573,6.644 90.605,6.562 90.673,6.43 C90.739,6.297 90.706,6.182 90.656,6.082 C90.606,5.982 90.208,5.008 90.042,4.612 C89.882,4.225 89.717,4.278 89.594,4.272 C89.479,4.266 89.346,4.265 89.214,4.265 C89.08,4.265 88.864,4.315 88.682,4.512 C88.5,4.712 87.986,5.19 87.986,6.165 C87.986,7.14 88.699,8.082 88.798,8.215 C88.898,8.347 90.202,10.348 92.198,11.205 C92.674,11.41 93.044,11.532 93.334,11.623 C93.81,11.773 94.244,11.753 94.587,11.703 C94.97,11.645 95.765,11.223 95.931,10.76 C96.098,10.297 96.098,9.9 96.048,9.817 C95.998,9.734 95.866,9.684 95.666,9.585 M97.669,2.321 C96.164,0.828 94.164,0.002 92.032,0 C87.643,0 84.07,3.556 84.067,7.928 C84.067,9.325 84.433,10.688 85.13,11.892 L84,16 L88.223,14.898 C89.387,15.528 90.697,15.862 92.03,15.863 L92.034,15.863 C96.424,15.863 99.998,12.306 100,7.933 C100,5.816 99.173,3.823 97.67,2.325" transform="translate(-84)"/>
</svg>
