<svg xmlns="http://www.w3.org/2000/svg" width="21" height="21" viewBox="0 0 21 21">
  <path fill="#666666" fill-rule="evenodd" d="M99.3103125,12.58425 C99.0478125,12.453 97.7655,11.825625 97.5253125,11.739 C97.2864375,11.6510625 97.111875,11.60775 96.9373125,11.87025 C96.7640625,12.1288125 96.2626875,12.7141875 96.1104375,12.8874375 C95.9581875,13.0606875 95.8059375,13.0816875 95.5460625,12.9530625 C95.2835625,12.8218125 94.4409375,12.5461875 93.4434375,11.6615625 C92.6664375,10.9725 92.1440625,10.1206875 91.9905,9.8595 C91.83825,9.599625 91.9734375,9.4591875 92.1046875,9.32925 C92.2228125,9.211125 92.3671875,9.02475 92.4984375,8.8725 C92.6270625,8.72025 92.6690625,8.612625 92.7583125,8.439375 C92.8449375,8.2648125 92.801625,8.113875 92.736,7.982625 C92.670375,7.851375 92.148,6.573 91.930125,6.05325 C91.720125,5.5453125 91.5035625,5.614875 91.342125,5.607 C91.1911875,5.599125 91.016625,5.5978125 90.843375,5.5978125 C90.6675,5.5978125 90.384,5.6634375 90.145125,5.922 C89.90625,6.1845 89.231625,6.811875 89.231625,8.0915625 C89.231625,9.37125 90.1674375,10.607625 90.297375,10.7821875 C90.428625,10.9554375 92.140125,13.58175 94.759875,14.7065625 C95.384625,14.975625 95.87025,15.13575 96.250875,15.2551875 C96.875625,15.4520625 97.44525,15.4258125 97.8954375,15.3601875 C98.398125,15.2840625 99.4415625,14.7301875 99.6594375,14.1225 C99.878625,13.5148125 99.878625,12.99375 99.813,12.8848125 C99.747375,12.775875 99.574125,12.71025 99.311625,12.5803125 M94.544625,19.0575 L94.539375,19.0575 C92.9814375,19.0575 91.4510625,18.640125 90.11625,17.852625 L89.80125,17.6649375 L86.5108125,18.5233125 L87.3901875,15.3339375 L87.1801875,15.0058125 C86.3113125,13.6276875 85.8519375,12.035625 85.8545625,10.4015625 C85.8545625,5.63325 89.7526875,1.7521875 94.54725,1.7521875 C96.870375,1.7548125 99.049125,2.6551875 100.68975,4.2905625 C102.333,5.924625 103.236,8.0968125 103.236,10.4094375 C103.232062,15.17775 99.3339375,19.0588125 94.5433125,19.0588125 M101.940562,3.0463125 C99.96525,1.08675 97.34025,0.002625 94.542,0 C88.7814375,0 84.091875,4.66725 84.0879375,10.4055 C84.0879375,12.2390625 84.5683125,14.028 85.483125,15.60825 L84,21 L89.5426875,19.553625 C91.0704375,20.3805 92.7898125,20.818875 94.539375,20.8201875 L94.544625,20.8201875 C100.3065,20.8201875 104.997375,16.151625 105,10.4120625 C105,7.6335 103.914563,5.0176875 101.941875,3.0515625" transform="translate(-84)"/>
</svg>
