<svg xmlns="http://www.w3.org/2000/svg" width="18" height="18" viewBox="0 0 18 18">
  <path fill="#666666" fill-rule="evenodd" d="M47.123125,25.7865 C46.898125,25.674 45.799,25.13625 45.593125,25.062 C45.388375,24.986625 45.23875,24.9495 45.089125,25.1745 C44.940625,25.396125 44.510875,25.897875 44.380375,26.046375 C44.249875,26.194875 44.119375,26.212875 43.896625,26.102625 C43.671625,25.990125 42.949375,25.753875 42.094375,24.995625 C41.428375,24.405 40.980625,23.674875 40.849,23.451 C40.7185,23.22825 40.834375,23.107875 40.946875,22.9965 C41.048125,22.89525 41.171875,22.7355 41.284375,22.605 C41.394625,22.4745 41.430625,22.38225 41.507125,22.23375 C41.581375,22.084125 41.54425,21.95475 41.488,21.84225 C41.43175,21.72975 40.984,20.634 40.79725,20.1885 C40.61725,19.753125 40.431625,19.81275 40.29325,19.806 C40.163875,19.79925 40.01425,19.798125 39.86575,19.798125 C39.715,19.798125 39.472,19.854375 39.26725,20.076 C39.0625,20.301 38.48425,20.83875 38.48425,21.935625 C38.48425,23.0325 39.286375,24.09225 39.39775,24.241875 C39.51025,24.390375 40.97725,26.6415 43.22275,27.605625 C43.75825,27.83625 44.1745,27.9735 44.50075,28.075875 C45.03625,28.244625 45.5245,28.222125 45.910375,28.165875 C46.34125,28.100625 47.235625,27.625875 47.422375,27.105 C47.61025,26.584125 47.61025,26.1375 47.554,26.044125 C47.49775,25.95075 47.34925,25.8945 47.12425,25.783125 M49.377625,17.611125 C47.6845,15.9315 45.4345,15.00225 43.036,15 C38.098375,15 34.07875,19.0005 34.075375,23.919 C34.075375,25.490625 34.487125,27.024 35.27125,28.3785 L34,33 L38.750875,31.76025 C40.060375,32.469 41.534125,32.84475 43.03375,32.845875 L43.03825,32.845875 C47.977,32.845875 51.99775,28.84425 52,23.924625 C52,21.543 51.069625,19.300875 49.37875,17.615625" transform="translate(-34 -15)"/>
</svg>
