<svg xmlns="http://www.w3.org/2000/svg" width="33" height="22" viewBox="0 0 33 22">
  <path fill="#B8B8B8" fill-opacity=".4" fill-rule="evenodd" d="M18.3608482,0 C11.3156129,0.0774647887 4.65327086,2.78873239 4.04064171,11.9295775 C3.65774849,17.5070423 5.95510781,22 12.0048207,22 C16.0634888,22 18.3608482,19.5985915 18.7437414,16.1901408 C19.050056,13.0140845 17.0590112,9.83802817 12.4642926,10.2253521 C12.4642926,10.2253521 12.157978,9.14084507 12.157978,8.9084507 C12.157978,6.73943662 14.9148092,5.19014085 18.3608482,5.11267606 L18.3608482,0 Z M36.5865655,0 C29.5413302,0.0774647887 22.8789882,2.78873239 22.266359,11.9295775 C21.8834658,17.5070423 24.2574038,22 30.3071167,22 C34.2892062,22 36.6631441,19.5985915 36.9694587,16.1901408 C37.2757733,13.0140845 35.2847285,9.83802817 30.6900099,10.2253521 C30.6900099,10.2253521 30.4602739,9.14084507 30.4602739,8.9084507 C30.4602739,6.73943662 33.1405265,5.19014085 36.5865655,5.11267606 L36.5865655,0 Z" transform="translate(-4)"/>
</svg>
