<svg xmlns="http://www.w3.org/2000/svg" width="108" height="24" viewBox="0 0 108 24">
  <g fill="#FFFFFF" fill-rule="evenodd">
    <g transform="translate(0 .361)">
      <path d="M1.82102318,22.0372102 C2.62841019,22.5730936 3.6388313,22.8612199 4.64094107,22.7994786 C5.1376424,22.7693994 5.6331564,22.6546238 6.10136171,22.4381333 C7.35637359,21.8341761 8.41666272,20.5763938 8.76415576,19.0676883 L6.45043786,12.5306239 L4.66429197,17.5498798 L4.58988572,17.758059 L4.58988572,5.38801918 L9.46824474,18.9671607 C10.2685078,20.9278446 11.4784009,21.7320654 11.9331498,22.0372102 C12.7310382,22.508186 13.7216704,22.7725657 14.7289253,22.8081857 C14.7550466,22.809373 14.7807722,22.8077899 14.806102,22.8081857 C14.930772,22.8109561 15.0558378,22.8121435 15.1809037,22.8081857 C15.7361801,22.7895841 16.2894777,22.7013256 16.8091342,22.5382651 C18.1638821,22.0372102 19.320741,21.4819338 20.5306342,19.3174241 L18.0716658,12.8812831 L16.6072874,16.7547619 C16.35676,17.485368 15.7777368,17.8237582 15.1919855,17.7960537 C14.6094003,17.7691408 14.0204827,17.3796953 13.7442297,16.6522554 L9.11679392,4.33247938 C9.11679392,4.33247938 8.3094069,2.37417009 7.91006694,1.97047658 C6.95307586,0.863485648 5.5971406,0.411903006 4.49054545,0.462562584 C3.83711606,0.462562584 3.58421395,0.512034828 2.98421457,0.713485804 C1.72484913,1.26678338 0.318254297,2.47232302 0.165879786,4.68867954 L0.165879786,18.1099056 C0.212581584,20.0223047 0.569969074,21.1300872 1.82102318,22.0372102"/>
      <path d="M13.5938341,6.49421855 C13.8831478,5.72997133 14.5049149,5.39870518 15.117975,5.46282121 C15.6724599,5.52179213 16.2214039,5.90371785 16.5091345,6.59593348 L21.1361745,18.86505 C21.1361745,18.86505 21.9368333,20.8296917 22.3429015,21.2286359 C23.2480456,22.3854948 24.6570151,22.788001 25.762423,22.788001 C26.4118946,22.788001 26.6675671,22.738133 27.2169069,22.5382651 C28.4770639,21.9837802 29.9347141,20.7758659 30.0827351,18.5151822 L30.0827351,5.13828329 C30.0360333,3.17720355 29.685374,2.12166375 28.425217,1.16744311 C27.535904,0.63314288 26.4732402,0.352536314 25.4275948,0.463749918 C24.9950095,0.510055938 24.5651947,0.622061098 24.1520025,0.813221848 C22.8969906,1.41757478 21.7884166,2.67496133 21.4880211,4.13459041 L23.7973854,10.6720506 L25.4889404,5.77509001 L25.6056949,5.43907453 L25.6056949,17.8605655 L20.7795786,4.23432645 C19.9773367,2.27205937 18.7733801,1.51612349 18.3202144,1.21810269 C17.3972602,0.63710066 16.2221955,0.388947885 15.0597956,0.440794796 C14.5072896,0.465728807 13.957554,0.551612623 13.4402722,0.713485804 C12.0823581,1.21810269 10.9278738,1.71757447 9.7219384,3.88445874 L12.1836773,10.370072 L13.5938341,6.49421855"/>
    </g>
    <path d="M36.1817402,2.14931292 L36.1817402,21.913116 L39.7109908,21.913116 L39.7109908,7.99375182 L47.475342,21.913116 L51.7951447,21.913116 L51.7951447,2.14931292 L48.2658941,2.14931292 L48.2658941,16.5204211 L40.3321389,2.14931292 L36.1817402,2.14931292 Z M54.2886528,2.14931292 L54.2886528,21.913116 L66.3728067,21.913116 L66.3728067,18.8920775 L57.7896694,18.8920775 L57.7896694,13.2170426 L65.6104886,13.2170426 L65.6104886,10.1960042 L57.7896694,10.1960042 L57.7896694,5.08564938 L65.8928286,5.08564938 L66.3163387,2.14931292 L54.2886528,2.14931292 Z M66.6922966,2.14931292 L71.7461834,21.913116 L75.95305,21.913116 L79.5387686,8.13492185 L83.1527211,21.913116 L87.3313538,21.913116 L92.3570065,2.14931292 L88.601884,2.14931292 L85.1291014,17.8191853 L85.0161654,17.8191853 L81.2045748,2.14931292 L77.8164943,2.14931292 L74.1460737,17.8191853 L74.0331377,17.8191853 L70.4191851,2.14931292 L66.6922966,2.14931292 Z M107.047605,3.9280552 C107.047605,3.9280552 103.77246,2.0081429 100.045572,2.0081429 C96.0928109,2.0081429 93.2976445,3.75865117 93.2976445,7.37260373 C93.2976445,13.8381907 103.800694,12.4264905 103.800694,16.3510171 C103.800694,18.0450574 102.36076,19.0897155 99.9608695,19.0897155 C96.742193,19.0897155 94.2858346,17.0003992 94.2858346,17.0003992 L92.5353264,19.6543956 C92.5353264,19.6543956 95.3304928,22.08252 100.130274,22.08252 C104.252438,22.08252 107.358179,20.0214377 107.386413,15.9557411 C107.386413,9.26428202 96.826895,10.9865563 96.826895,7.2031997 C96.826895,5.59386145 98.1256592,5.00094736 100.10204,5.00094736 C102.671334,5.00094736 105.720606,6.63851962 105.720606,6.63851962 L107.047605,3.9280552 Z"/>
  </g>
</svg>
