<svg width="48" height="48" viewBox="0 0 48 48" xmlns="http://www.w3.org/2000/svg">
  <path d="M33.2 20.864v8.507c0 .473-.168.876-.504 1.212-.335.336-.74.504-1.21.504H15.714c-.47 0-.875-.168-1.21-.504-.336-.336-.504-.74-.504-1.21v-8.508c.314.35.675.66 1.082.932 2.586 1.758 4.36 2.99 5.325 3.697.407.3.738.534.99.702.255.168.592.34 1.014.514.422.174.815.26 1.18.26h.02c.365 0 .758-.086 1.18-.26.42-.176.758-.347 1.012-.515.253-.168.584-.402.99-.702 1.215-.88 2.994-2.11 5.337-3.697.406-.278.763-.59 1.07-.932zm0-3.15c0 .565-.175 1.104-.525 1.618-.35.514-.786.954-1.307 1.318-2.686 1.864-4.357 3.025-5.014 3.482-.072.05-.224.16-.456.327s-.425.302-.578.406c-.154.104-.34.22-.558.348-.217.13-.423.225-.616.29-.192.064-.37.096-.535.096h-.02c-.165 0-.344-.032-.536-.096-.193-.065-.4-.16-.616-.29-.218-.128-.404-.244-.558-.348-.153-.104-.346-.24-.578-.407-.232-.17-.384-.278-.456-.328-.65-.457-1.585-1.11-2.807-1.955-1.222-.847-1.954-1.356-2.197-1.527-.443-.3-.86-.712-1.254-1.237-.394-.526-.59-1.013-.59-1.463 0-.557.148-1.02.445-1.393.296-.37.72-.557 1.27-.557h15.77c.465 0 .867.168 1.206.504.34.335.51.74.51 1.21z" fill="rgba(255, 255, 255, 0.75)" fill-rule="evenodd"/>
</svg>
