<svg width="48" height="48" viewBox="0 0 48 48" xmlns="http://www.w3.org/2000/svg">
  <g transform="translate(0 -2)">
    <path d="M23.88 34c-5.88 0-10.665-3.19-10.665-7.113 0-.273.024-.54.07-.805-.793-.49-1.285-1.357-1.285-2.304 0-1.49 1.212-2.702 2.702-2.702.665 0 1.297.244 1.79.678 1.85-1.187 4.34-1.934 7.083-1.983l1.8-5.502.395.094c.003 0 .006 0 .01.003l4.198.99c.34-.796 1.13-1.355 2.047-1.355 1.226 0 2.222 1 2.222 2.225 0 1.227-.996 2.225-2.222 2.225-1.227 0-2.225-1-2.226-2.222l-3.833-.904-1.456 4.454c2.645.105 5.032.853 6.816 2.014.497-.458 1.144-.716 1.83-.716 1.492 0 2.703 1.214 2.703 2.703 0 .99-.53 1.878-1.373 2.352.038.248.06.498.06.752-.003 3.922-4.787 7.113-10.667 7.113V34zm.05-2.54l-.005.003c1.787 0 3.045-.39 3.847-1.192.175-.174.175-.456 0-.632-.173-.173-.456-.173-.63 0-.627.627-1.678.93-3.214.93s-2.587-.305-3.213-.93c-.175-.174-.458-.174-.633 0-.173.173-.173.455 0 .628.803.805 2.06 1.193 3.848 1.193zm-3.59-7.544c-.91 0-1.67.76-1.67 1.67 0 .907.76 1.644 1.67 1.644.908 0 1.644-.737 1.644-1.643 0-.91-.737-1.67-1.645-1.67zm7.2 0c-.908 0-1.67.76-1.67 1.67 0 .907.762 1.644 1.67 1.644.91 0 1.646-.737 1.646-1.643 0-.91-.737-1.67-1.645-1.67z" fill="rgba(255, 255, 255, 0.75)" fill-rule="evenodd"/>
  </g>
</svg>
