<svg xmlns="http://www.w3.org/2000/svg" width="44" height="44" viewBox="0 0 44 44">
  <path fill="#01CFFF" d="M31 16.65c-.48.704-1.07 1.34-1.74 1.832v.452c0 4.68-3.497 10.066-9.913 10.066-1.96 0-3.798-.592-5.347-1.593.274.042.562.056.836.056 1.632 0 3.14-.564 4.333-1.522-1.523-.028-2.812-1.043-3.264-2.453.22.043.438.07.658.07.315 0 .63-.04.918-.126-1.59-.323-2.797-1.747-2.797-3.467v-.043c.48.268 1.015.423 1.577.438-.932-.635-1.55-1.706-1.55-2.933 0-.65.18-1.27.48-1.79 1.714 2.142 4.278 3.552 7.185 3.693-.07-.253-.096-.52-.096-.803 0-1.946 1.564-3.525 3.483-3.525 1 0 1.92.423 2.55 1.114.795-.17 1.535-.45 2.207-.86-.26.818-.81 1.522-1.522 1.96.7-.085 1.37-.282 2.002-.564" fill-rule="evenodd"/>
</svg>
