<svg width="48" height="48" viewBox="0 0 48 48" xmlns="http://www.w3.org/2000/svg">
  <path d="M28.123 25.787c-.225-.113-1.324-.65-1.53-.725-.205-.075-.354-.113-.504.112-.15.222-.58.724-.71.872-.13.15-.26.167-.483.057-.225-.113-.948-.35-1.803-1.107-.666-.59-1.113-1.32-1.245-1.545-.132-.222-.016-.342.097-.453.1-.102.225-.262.337-.392.11-.13.147-.223.223-.37.074-.15.037-.28-.02-.393-.055-.112-.503-1.208-.69-1.653-.18-.437-.365-.377-.504-.384-.13-.007-.28-.008-.427-.008-.15 0-.394.056-.6.278-.203.225-.782.763-.782 1.86 0 1.096.802 2.156.914 2.306.112.148 1.58 2.4 3.825 3.364.535.23.95.367 1.278.47.536.17 1.024.146 1.41.09.43-.065 1.326-.54 1.512-1.06.188-.522.188-.97.132-1.062-.056-.093-.205-.15-.43-.26m2.254-8.173c-1.694-1.678-3.944-2.608-6.342-2.61-4.938 0-8.957 4-8.96 8.92 0 1.57.41 3.104 1.195 4.458L15 33l4.75-1.24c1.31.71 2.784 1.085 4.284 1.086h.004c4.94 0 8.96-4.002 8.962-8.92 0-2.383-.93-4.625-2.62-6.31" fill="rgba(0, 0, 0, 0.75)" fill-rule="evenodd"/>
</svg>
