<svg xmlns="http://www.w3.org/2000/svg" width="128" height="44" viewBox="0 0 128 44">
  <g fill="#FFF" fill-rule="evenodd">
    <path d="M11.82 32.398c.808.536 1.82.824 2.82.762.498-.03.993-.144 1.46-.36 1.256-.605 2.317-1.863 2.664-3.37L16.45 22.89l-1.786 5.02-.074.207V15.75l4.878 13.578c.8 1.96 2.01 2.765 2.465 3.07.798.47 1.79.736 2.796.77.025.002.05 0 .076 0 .125.004.25.005.375 0 .556-.017 1.11-.106 1.63-.27 1.354-.5 2.51-1.055 3.72-3.22l-2.458-6.436-1.465 3.874c-.25.73-.83 1.07-1.415 1.04-.583-.026-1.172-.415-1.448-1.143l-4.627-12.32s-.808-1.958-1.207-2.362c-.957-1.106-2.313-1.557-3.42-1.506-.653 0-.906.05-1.506.25-1.26.554-2.666 1.76-2.818 3.976v13.42c.047 1.913.404 3.02 1.655 3.928"/>
    <path d="M23.594 16.855c.29-.764.91-1.095 1.524-1.03.554.058 1.103.44 1.39 1.132l4.628 12.27s.8 1.964 1.207 2.363c.905 1.156 2.314 1.56 3.42 1.56.65 0 .905-.05 1.454-.25 1.26-.555 2.718-1.763 2.866-4.024V15.5c-.047-1.962-.398-3.017-1.658-3.972-.89-.534-1.952-.814-2.997-.703-.433.046-.863.158-1.276.35-1.255.604-2.364 1.86-2.664 3.32l2.31 6.538 1.69-4.897.118-.336v12.422L30.78 14.595c-.803-1.962-2.007-2.718-2.46-3.016-.923-.582-2.098-.83-3.26-.778-.553.025-1.102.11-1.62.272-1.358.505-2.512 1.005-3.718 3.17l2.462 6.487 1.41-3.875M46.182 12.15v19.763h3.53v-13.92l7.763 13.92h4.32V12.15h-3.53v14.37l-7.933-14.37h-4.15zm18.107 0v19.763h12.083v-3.02H67.79v-5.676h7.82v-3.02h-7.82v-5.11h8.103l.423-2.938H64.29zm12.402 0l5.054 19.763h4.207l3.586-13.778 3.613 13.778h4.178l5.027-19.764h-3.755L95.13 27.82h-.114l-3.81-15.67h-3.39l-3.67 15.67h-.113L80.42 12.15H76.69zm40.356 1.778s-3.276-1.92-7.002-1.92c-3.953 0-6.748 1.75-6.748 5.365 0 6.465 10.503 5.053 10.503 8.978 0 1.695-1.44 2.74-3.84 2.74-3.218 0-5.674-2.09-5.674-2.09l-1.75 2.654s2.794 2.43 7.594 2.43c4.122 0 7.228-2.063 7.256-6.128 0-6.692-10.56-4.97-10.56-8.753 0-1.61 1.3-2.202 3.276-2.202 2.57 0 5.62 1.64 5.62 1.64l1.326-2.712z"/>
  </g>
</svg>
